<svg width="36" height="36" viewBox="0 0 36 36" fill="none" xmlns="http://www.w3.org/2000/svg">
<path d="M22.0876 3.97041C22.0876 6.16168 20.3085 7.94083 18.1172 7.94083H17.8828C15.6915 7.94083 13.9124 6.16168 13.9124 3.97041C13.9124 1.77914 15.6915 0 17.8828 0H18.1172C20.3085 0 22.0876 1.77914 22.0876 3.97041Z" fill="#8352FF"/>
<path d="M13.9124 32.0296C13.9124 29.8383 15.6915 28.0592 17.8828 28.0592H18.1172C20.3085 28.0592 22.0876 29.8383 22.0876 32.0296C22.0876 34.2209 20.3085 36 18.1172 36H17.8828C15.6915 36 13.9124 34.2209 13.9124 32.0296Z" fill="#8352FF"/>
<path d="M32.0296 22.0876C29.8383 22.0876 28.0592 20.3085 28.0592 18.1172V17.8828C28.0592 15.6915 29.8383 13.9124 32.0296 13.9124C34.2209 13.9124 36 15.6915 36 17.8828V18.1172C36 20.3085 34.2209 22.0876 32.0296 22.0876Z" fill="#8352FF"/>
<path d="M3.97041 13.9124C6.16168 13.9124 7.94083 15.6915 7.94083 17.8828V18.1172C7.94083 20.3085 6.16168 22.0876 3.97041 22.0876C1.77914 22.0876 0 20.3085 0 18.1172V17.8828C0 15.6915 1.77914 13.9124 3.97041 13.9124Z" fill="#8352FF"/>
<path fill-rule="evenodd" clip-rule="evenodd" d="M18 13.8148L16.0514 11.8662C14.8964 10.7112 13.0211 10.7112 11.8661 11.8662C10.7112 13.0211 10.7112 14.8965 11.8661 16.0514L13.8148 18L11.8661 19.9486C10.7112 21.1035 10.7112 22.9789 11.8661 24.1338C13.021 25.2887 14.8964 25.2887 16.0513 24.1338L18 22.1852L19.9486 24.1338C21.1035 25.2887 22.9789 25.2887 24.1338 24.1338C25.2887 22.9789 25.2887 21.1035 24.1338 19.9486L22.1852 18L24.1338 16.0514C25.2887 14.8965 25.2887 13.0211 24.1338 11.8662C22.9789 10.7113 21.1035 10.7113 19.9486 11.8662L18 13.8148Z" fill="#212121"/>
</svg>
