<svg width="191" height="42" viewBox="0 0 191 42" fill="none" xmlns="http://www.w3.org/2000/svg">
<path d="M52.285 29.745C52.495 29.9083 52.7517 30.0833 53.055 30.27C53.3817 30.4567 53.755 30.6317 54.175 30.795C54.595 30.9583 55.05 31.0983 55.54 31.215C56.03 31.3083 56.5433 31.355 57.08 31.355C58.2 31.355 59.1333 31.1683 59.88 30.795C60.65 30.3983 61.2683 29.8733 61.735 29.22C62.2017 28.5433 62.54 27.7617 62.75 26.875C62.96 25.965 63.065 25.0083 63.065 24.005C63.065 21.625 62.47 19.805 61.28 18.545C60.09 17.2617 58.515 16.62 56.555 16.62C55.435 16.62 54.525 16.6783 53.825 16.795C53.1483 16.8883 52.635 16.9933 52.285 17.11V29.745ZM52.285 39.475H50.01V15.535C50.6867 15.3017 51.55 15.08 52.6 14.87C53.65 14.66 54.98 14.555 56.59 14.555C57.92 14.555 59.1217 14.7767 60.195 15.22C61.2917 15.64 62.225 16.2583 62.995 17.075C63.7883 17.8917 64.395 18.8833 64.815 20.05C65.2583 21.2167 65.48 22.535 65.48 24.005C65.48 25.3817 65.2933 26.6533 64.92 27.82C64.57 28.9633 64.045 29.955 63.345 30.795C62.645 31.6117 61.7817 32.2533 60.755 32.72C59.7517 33.1867 58.5967 33.42 57.29 33.42C56.1 33.42 55.0617 33.2567 54.175 32.93C53.3117 32.58 52.6817 32.2533 52.285 31.95V39.475ZM74.8253 14.555C75.5719 14.555 76.2719 14.6133 76.9253 14.73C77.6019 14.8467 78.0686 14.9633 78.3253 15.08L77.8703 17.04C77.6836 16.9467 77.2986 16.8533 76.7153 16.76C76.1553 16.6433 75.4086 16.585 74.4753 16.585C73.4953 16.585 72.7019 16.655 72.0953 16.795C71.5119 16.935 71.1269 17.0517 70.9403 17.145V33H68.6653V15.745C69.2486 15.4883 70.0536 15.2317 71.0803 14.975C72.1069 14.695 73.3553 14.555 74.8253 14.555ZM80.0061 15.535C80.6828 15.3483 81.5578 15.1383 82.6311 14.905C83.7278 14.6717 85.1394 14.555 86.8661 14.555C89.1528 14.555 90.8094 15.22 91.8361 16.55C91.9528 16.4567 92.1744 16.305 92.5011 16.095C92.8511 15.8617 93.2828 15.6283 93.7961 15.395C94.3094 15.1617 94.9044 14.9633 95.5811 14.8C96.2811 14.6367 97.0511 14.555 97.8911 14.555C99.2678 14.555 100.376 14.765 101.216 15.185C102.079 15.5817 102.744 16.1533 103.211 16.9C103.678 17.6233 103.993 18.4983 104.156 19.525C104.319 20.5517 104.401 21.6717 104.401 22.885V33H102.126V23.62C102.126 22.43 102.068 21.4033 101.951 20.54C101.858 19.6533 101.648 18.93 101.321 18.37C101.018 17.7867 100.574 17.355 99.9911 17.075C99.4078 16.7717 98.6494 16.62 97.7161 16.62C97.0161 16.62 96.3744 16.69 95.7911 16.83C95.2311 16.9467 94.7411 17.0983 94.3211 17.285C93.9011 17.4717 93.5511 17.6583 93.2711 17.845C93.0144 18.0317 92.8278 18.1717 92.7111 18.265C92.9211 18.8717 93.0728 19.56 93.1661 20.33C93.2828 21.0767 93.3411 21.87 93.3411 22.71V33H91.0661V23.62C91.0661 22.43 91.0078 21.4033 90.8911 20.54C90.7978 19.6533 90.5878 18.93 90.2611 18.37C89.9344 17.7867 89.4678 17.355 88.8611 17.075C88.2778 16.7717 87.4961 16.62 86.5161 16.62C85.4194 16.62 84.4861 16.6783 83.7161 16.795C82.9694 16.9117 82.4911 17.0167 82.2811 17.11V33H80.0061V15.535ZM110.746 29.745C110.956 29.9083 111.213 30.0833 111.516 30.27C111.843 30.4567 112.216 30.6317 112.636 30.795C113.056 30.9583 113.511 31.0983 114.001 31.215C114.491 31.3083 115.004 31.355 115.541 31.355C116.661 31.355 117.594 31.1683 118.341 30.795C119.111 30.3983 119.729 29.8733 120.196 29.22C120.663 28.5433 121.001 27.7617 121.211 26.875C121.421 25.965 121.526 25.0083 121.526 24.005C121.526 21.625 120.931 19.805 119.741 18.545C118.551 17.2617 116.976 16.62 115.016 16.62C113.896 16.62 112.986 16.6783 112.286 16.795C111.609 16.8883 111.096 16.9933 110.746 17.11V29.745ZM110.746 39.475H108.471V15.535C109.148 15.3017 110.011 15.08 111.061 14.87C112.111 14.66 113.441 14.555 115.051 14.555C116.381 14.555 117.583 14.7767 118.656 15.22C119.753 15.64 120.686 16.2583 121.456 17.075C122.249 17.8917 122.856 18.8833 123.276 20.05C123.719 21.2167 123.941 22.535 123.941 24.005C123.941 25.3817 123.754 26.6533 123.381 27.82C123.031 28.9633 122.506 29.955 121.806 30.795C121.106 31.6117 120.243 32.2533 119.216 32.72C118.213 33.1867 117.058 33.42 115.751 33.42C114.561 33.42 113.523 33.2567 112.636 32.93C111.773 32.58 111.143 32.2533 110.746 31.95V39.475ZM129.261 14.905H136.471V16.83H129.261V26.455C129.261 27.4817 129.343 28.3217 129.506 28.975C129.693 29.605 129.95 30.095 130.276 30.445C130.603 30.795 131 31.0283 131.466 31.145C131.933 31.2617 132.446 31.32 133.006 31.32C133.963 31.32 134.733 31.215 135.316 31.005C135.9 30.7717 136.355 30.5617 136.681 30.375L137.241 32.265C136.915 32.475 136.343 32.72 135.526 33C134.71 33.2567 133.823 33.385 132.866 33.385C131.746 33.385 130.801 33.245 130.031 32.965C129.285 32.6617 128.678 32.2183 128.211 31.635C127.768 31.0283 127.453 30.2817 127.266 29.395C127.08 28.5083 126.986 27.4583 126.986 26.245V9.585L129.261 9.165V14.905ZM142.621 31.39C143.928 31.39 145.001 31.18 145.841 30.76C146.705 30.3167 147.136 29.5817 147.136 28.555C147.136 28.065 147.055 27.645 146.891 27.295C146.751 26.945 146.506 26.63 146.156 26.35C145.806 26.07 145.34 25.8017 144.756 25.545C144.196 25.2883 143.496 24.985 142.656 24.635C141.98 24.355 141.338 24.075 140.731 23.795C140.125 23.4917 139.588 23.1533 139.121 22.78C138.655 22.3833 138.281 21.9167 138.001 21.38C137.721 20.8433 137.581 20.19 137.581 19.42C137.581 17.95 138.13 16.76 139.226 15.85C140.346 14.94 141.875 14.485 143.811 14.485C145.048 14.485 146.063 14.59 146.856 14.8C147.673 15.01 148.245 15.1967 148.571 15.36L148.046 17.39C147.766 17.25 147.288 17.0633 146.611 16.83C145.958 16.5967 144.99 16.48 143.706 16.48C143.193 16.48 142.703 16.5383 142.236 16.655C141.793 16.7483 141.396 16.9117 141.046 17.145C140.696 17.355 140.416 17.635 140.206 17.985C139.996 18.3117 139.891 18.72 139.891 19.21C139.891 19.7 139.985 20.12 140.171 20.47C140.358 20.82 140.626 21.135 140.976 21.415C141.35 21.6717 141.793 21.9167 142.306 22.15C142.843 22.3833 143.45 22.64 144.126 22.92C144.826 23.2 145.491 23.4917 146.121 23.795C146.775 24.075 147.346 24.425 147.836 24.845C148.326 25.2417 148.723 25.7317 149.026 26.315C149.33 26.875 149.481 27.5867 149.481 28.45C149.481 30.0833 148.863 31.32 147.626 32.16C146.413 33 144.745 33.42 142.621 33.42C141.035 33.42 139.821 33.28 138.981 33C138.141 32.7433 137.581 32.545 137.301 32.405L137.896 30.34C137.966 30.3867 138.118 30.4683 138.351 30.585C138.585 30.6783 138.9 30.795 139.296 30.935C139.693 31.0517 140.16 31.1567 140.696 31.25C141.256 31.3433 141.898 31.39 142.621 31.39Z" fill="black"/>
<path d="M157.23 31.495C157.23 32.0317 157.055 32.4867 156.705 32.86C156.378 33.2333 155.912 33.42 155.305 33.42C154.698 33.42 154.22 33.2333 153.87 32.86C153.543 32.4867 153.38 32.0317 153.38 31.495C153.38 30.9583 153.543 30.5033 153.87 30.13C154.22 29.7567 154.698 29.57 155.305 29.57C155.912 29.57 156.378 29.7567 156.705 30.13C157.055 30.5033 157.23 30.9583 157.23 31.495ZM176.868 33C176.542 32.0433 176.203 31.0983 175.853 30.165C175.503 29.2317 175.165 28.275 174.838 27.295H164.618C164.292 28.275 163.953 29.2433 163.603 30.2C163.277 31.1333 162.95 32.0667 162.623 33H158.038C158.948 30.41 159.812 28.0183 160.628 25.825C161.445 23.6317 162.238 21.555 163.008 19.595C163.802 17.635 164.583 15.7683 165.353 13.995C166.123 12.2217 166.917 10.4717 167.733 8.745H171.898C172.715 10.4717 173.508 12.2217 174.278 13.995C175.048 15.7683 175.818 17.635 176.588 19.595C177.382 21.555 178.187 23.6317 179.003 25.825C179.843 28.0183 180.718 30.41 181.628 33H176.868ZM169.728 13.435C169.192 14.6717 168.573 16.1767 167.873 17.95C167.197 19.7233 166.485 21.6483 165.738 23.725H173.718C172.972 21.6483 172.248 19.7117 171.548 17.915C170.848 16.1183 170.242 14.625 169.728 13.435ZM182.944 8.745H187.354V33H182.944V8.745Z" fill="black"/>
<path d="M22.0876 9.97041C22.0876 12.1617 20.3085 13.9408 18.1172 13.9408H17.8828C15.6915 13.9408 13.9124 12.1617 13.9124 9.97041C13.9124 7.77914 15.6915 6 17.8828 6H18.1172C20.3085 6 22.0876 7.77914 22.0876 9.97041Z" fill="#8352FF"/>
<path d="M13.9124 38.0296C13.9124 35.8383 15.6915 34.0592 17.8828 34.0592H18.1172C20.3085 34.0592 22.0876 35.8383 22.0876 38.0296C22.0876 40.2209 20.3085 42 18.1172 42H17.8828C15.6915 42 13.9124 40.2209 13.9124 38.0296Z" fill="#8352FF"/>
<path d="M32.0296 28.0876C29.8383 28.0876 28.0592 26.3085 28.0592 24.1172V23.8828C28.0592 21.6915 29.8383 19.9124 32.0296 19.9124C34.2209 19.9124 36 21.6915 36 23.8828V24.1172C36 26.3085 34.2209 28.0876 32.0296 28.0876Z" fill="#8352FF"/>
<path d="M3.97041 19.9124C6.16168 19.9124 7.94083 21.6915 7.94083 23.8828V24.1172C7.94083 26.3085 6.16168 28.0876 3.97041 28.0876C1.77914 28.0876 0 26.3085 0 24.1172V23.8828C0 21.6915 1.77914 19.9124 3.97041 19.9124Z" fill="#8352FF"/>
<path fill-rule="evenodd" clip-rule="evenodd" d="M18 19.8148L16.0514 17.8662C14.8964 16.7112 13.0211 16.7112 11.8661 17.8662C10.7112 19.0211 10.7112 20.8965 11.8661 22.0514L13.8148 24L11.8661 25.9486C10.7112 27.1035 10.7112 28.9789 11.8661 30.1338C13.021 31.2887 14.8964 31.2887 16.0513 30.1338L18 28.1852L19.9486 30.1338C21.1035 31.2887 22.9789 31.2887 24.1338 30.1338C25.2887 28.9789 25.2887 27.1035 24.1338 25.9486L22.1852 24L24.1338 22.0514C25.2887 20.8965 25.2887 19.0211 24.1338 17.8662C22.9789 16.7113 21.1035 16.7113 19.9486 17.8662L18 19.8148Z" fill="#212121"/>
</svg>
